<svg version="1" xmlns="http://www.w3.org/2000/svg" width="768" height="768" viewBox="0 0 576.000000 576.000000"><path d="M86.4 39.1c-2.2 3.9-4.4 7.8-4.9 8.8-.6.9-4.1 7.2-7.9 14.1-3.8 6.9-7.2 12.7-7.5 13-.3.3-1.5 2.3-2.6 4.5s-3.8 7.1-6.1 11c-2.2 3.8-5.4 9.5-7.1 12.5-4 7.3-15.5 27.6-18.2 32-1.1 1.9-2.4 4.2-2.8 5-.4.8-3.8 6.9-7.5 13.4-3.7 6.6-6.8 12.1-6.8 12.3 0 .2-1.1 2.1-2.5 4.3-1.4 2.2-4.2 7.1-6.2 10.8-2 3.7-4.1 7.5-4.7 8.4-1.3 2.1-.7 2.8 2.5 2.8 1.3 0 4.4 0 6.9.1s5.2.1 6 0c.8-.1 3.3-.1 5.5 0s4.7.1 5.5 0h6.5c2.8.1 5.7 0 6.5 0 .8-.1 3.3-.1 5.5 0s4.7.1 5.5 0h6.5c2.8.1 5.5.1 6 0 8.8-.4 15.5-.5 15.5-.1 0 .3 3 .4 6.7.2 3.8-.1 8.5-.3 10.5-.2 4 0 3.8.3 9.4-12.8.8-1.7 2-4.7 2.8-6.5.8-1.7 7.4-16.9 14.6-33.7 7.2-16.8 13.9-32.3 14.9-34.5 1-2.2 4.4-10.1 7.6-17.5 3.2-7.4 6.8-15.8 8-18.5 1.3-2.8 3.5-7.9 5-11.5 2.6-6.1 3.8-8.8 8.5-19.5 1.1-2.5 2-4.7 2-5 0-.3-17.9-.5-39.9-.5H90.2l-3.8 7.1zM217.1 35.2c-.8 1.8-2.2 5.1-3.2 7.4-6.7 15.2-10.1 23-10.3 23.9-.1.5-1.4 3.6-2.9 6.7s-2.7 5.9-2.7 6.2c0 .3-1.6 4-3.5 8.2-1.9 4.1-3.5 7.7-3.5 7.9 0 .3-1.3 3.4-3 7-1.6 3.6-3 6.7-3 6.9 0 .2-1.2 3-2.7 6.2-1.5 3.3-2.7 6.1-2.8 6.4-.2.6-.8 2.1-7 16.5-5.4 12.6-7.8 18-11 25-1.2 2.7-2.6 6.1-3 7.5-.4 1.4-1.1 2.9-1.5 3.5-.5.5-2.1 4.1-3.6 8-1.5 3.8-3.1 7.5-3.6 8.1-.6.9.5 1.3 3.8 1.6 2.5.2 4.8 0 5.1-.5.2-.4.8-.5 1.2-.3.4.3 2.9.5 5.7.6 2.7 0 6.7.1 8.9.1 2.2.1 4.7.1 5.5 0h6.5c2.8.1 5.5.1 6 0 8.8-.4 15.5-.5 15.5-.1 0 .6 19.7.2 22.3-.4.9-.2 1.7-.1 1.7.2 0 .8 43.4.5 46.3-.2.9-.2 1.7-.1 1.7.2 0 .7 19.3.5 22.3-.2.9-.2 1.7-.1 1.7.2 0 .4 3 .6 6.7.4 3.8-.1 9.1-.2 11.8-.1h6.5c.8-.1 3.3-.1 5.5 0s4.7.1 5.5 0h6.5c2.8.1 5.6.1 6.3 0 .6-.1 1.8-.1 2.5-.2h5.7c2.5 0 5.2.1 6 0 .8 0 7 0 13.8.1 6.8.1 12.5.1 12.7-.2.2-.2 3.3-.1 6.9.2 3.6.3 7.3.3 8.3-.1.9-.3 3-.3 4.5 0 1.6.3 5.1.4 7.9.2 4.9-.3 5-.4 4.4-3-.4-1.4-1.1-2.8-1.6-2.9-.5-.2-.9-1.2-.9-2.1 0-1-.3-2.1-.7-2.5-.5-.4-.8-1.1-.9-1.4 0-.4-.9-2.5-1.9-4.7-.9-2.2-6.6-15.5-12.7-29.5-6-14-12-27.9-13.3-30.8-1.4-2.9-2.5-5.5-2.5-5.7 0-.2-1.1-2.8-2.4-5.7-1.3-2.9-3.6-8.2-5.1-11.8-1.5-3.6-3.6-8.5-4.7-11s-2.6-5.9-3.3-7.5c-.7-1.7-2.2-5-3.3-7.5-1.1-2.5-3.4-7.9-5.2-12-1.8-4.1-4.2-9.8-5.5-12.5-1.2-2.8-2.5-6-2.9-7.3l-.7-2.2H218.5l-1.4 3.2zM406.4 33.2c.1.7 1 2.9 1.9 4.8.9 1.9 5.2 11.8 9.6 22 4.3 10.2 15.2 35.3 24.1 55.8 8.8 20.5 16.5 38.3 17 39.5.5 1.2 4.2 9.8 8.3 19.2l7.4 17 3.4.2c1.9.2 5.4.2 7.9.2h18c.8.1 3.5 0 6 0s5.2-.1 6 0h12c.8.1 3.5 0 6 0s5.2-.1 6 0h11.5c6.2.1 17.8.2 20.8.2l3.9-.1-2.2-3.8c-1.3-2-3.7-6.2-5.3-9.2-1.7-3-8.2-14.4-14.4-25.4-6.2-10.9-11.3-20.2-11.3-20.6 0-.5-.3-1-.7-1.2-.8-.3-4.4-6.6-6.7-11.5-.6-1.3-1.4-2.3-1.8-2.3-.5 0-.8-.5-.8-1.1 0-.6-1.9-4.3-4.2-8.2-2.3-4-5-8.8-6-10.7-1-1.9-2.3-4.2-2.8-5-1-1.4-22.1-38.9-32.3-57.3l-2.1-3.7h-39.7c-31.2 0-39.7.3-39.5 1.2zM6.3 224l-6.2.5 3.7 4.1c2 2.2 5.6 6.3 7.9 9 7.3 8.7 8.3 9.8 11.1 12.9 1.5 1.7 4.5 5.3 6.7 7.9 2.2 2.7 5.1 6.1 6.5 7.6 1.4 1.5 7 8 12.5 14.6C54 287.1 59.2 293.1 60 294c.8.8 3.5 4 6 7s5.2 6.1 6 7c.8.9 3.3 3.8 5.5 6.4 2.2 2.7 5.2 6.2 6.7 7.8 1.5 1.6 4.2 4.7 6 6.9 1.8 2.3 4.2 5.1 5.3 6.3 1.1 1.2 3.7 4.3 5.8 6.8 2.2 2.6 5.4 6.4 7.3 8.5 1.9 2.1 4.5 5.1 5.7 6.6 1.2 1.6 3.8 4.6 5.7 6.7 1.9 2.1 4.4 4.9 5.4 6.2 1.7 2.1 11.6 13.6 14.1 16.4.6.6 2.8 3.3 5 5.9 2.2 2.7 4.5 5.3 5 5.9 1.1 1.2 13.1 15.2 14.9 17.4.6.7 1.8 2.1 2.6 3 .9.9 4 4.6 7 8.2 3 3.6 5.7 6.7 6 7 .3.3 3.2 3.6 6.5 7.5 3.3 3.8 6.2 7.2 6.5 7.5.3.3 2.8 3.2 5.5 6.5 5 5.9 9.1 10.7 13 15.1 1.2 1.2 3.1 3.6 4.4 5.2 2.6 3.4 4.4 4.4 6.6 3.6 2.6-1.1 3.1.2-15.7-38.4-14.3-29.1-27.2-55.6-43.1-88-6-12.4-15.3-31.5-20.7-42.5-5.4-11-15.9-32.6-23.4-48-7.5-15.4-14.9-30.3-16.4-33.2l-2.6-5.1-6.3.1c-3.5.1-6.3 0-6.3-.3s-3-.4-6.7-.3c-14.7.5-32.3.4-33.1-.1-.4-.2-1.4-.1-2 .3-.7.4-3.3.5-5.7.1-2.5-.4-4.5-.4-4.5-.1 0 .3-2.7.6-6 .6s-6-.2-6-.5-2.6-.5-5.7-.5c-3.2 0-8.6.2-12 .5zM149.8 223.7c-1.4.4-1 1.8 2.6 10.1 4.2 9.6 5.8 13.2 6.1 14.2.1.3 1.3 3.1 2.8 6.4 1.5 3.2 2.7 6 2.7 6.3 0 .2.9 2.3 1.9 4.6 1.8 3.9 10.1 23.1 28.9 66.7 4.1 9.6 8.9 20.9 10.7 25 8.3 19.4 24.9 57.9 26.5 61.5 1 2.2 3 6.9 4.5 10.5 2.7 6.5 5.2 12.1 8.6 19.6 1.1 2.2 1.9 4.3 1.9 4.7 0 .3 1.1 3 2.4 5.9 1.4 2.9 6.1 13.8 10.6 24.3 4.5 10.4 9 20.7 10 23 1 2.2 3 6.9 4.5 10.5 1.4 3.6 3.6 8.7 4.9 11.5 1.2 2.7 3.1 7.1 4.2 9.7 1.9 4.8 3.4 6.1 5.7 5.2 1.3-.4 14.7-30.8 14.7-33.2 0-.6.4-1.2.9-1.2s1.1-1 1.5-2.3c.3-1.3 1.5-4.5 2.8-7.3 1.2-2.7 2.3-5.1 2.3-5.4 0-.3 1.1-2.8 2.4-5.5 1.2-2.8 3.1-7 4.1-9.5 1-2.5 2.9-7 4.3-10s5.7-13.2 9.7-22.5c4-9.4 8.1-19 9.2-21.5 2.3-5.1 4.6-10.5 5.8-13.5.5-1.1 1.4-3.5 2.2-5.3.7-1.7 1.7-3.2 2.1-3.2.5 0 .6-.4.3-.8-.3-.5.1-1.9.7-3.3.7-1.3 2.3-4.9 3.6-7.9 1.3-3 3.1-7.1 3.9-9 .9-1.9 1.6-3.7 1.7-4 .1-.3.9-2.3 1.8-4.4 1.5-3.5 3.8-8.7 8.2-19.1.7-1.7 3.4-7.7 5.9-13.4 2.5-5.7 4.6-11 4.6-11.7 0-.8.5-1.4 1-1.4.6 0 1-.5 1-1.1 0-1.1 6.6-16.9 13.5-32.4.7-1.7 3.4-7.9 6-14 2.5-6 5.5-12.8 6.5-15 1.1-2.3 2.8-6.4 3.9-9.2 2.2-5.7 5.8-13.9 7.1-16.5 1.4-2.5 6-14.1 6-14.9 0-.7-6.2-1.2-11-.9-1.4.1-3.2.1-4 .1h-11.5c-.5 0-6.4 0-13-.1s-12.4 0-13 .1c-.5.1-1.3.1-1.6.1-.9-.2-10.5-.2-24.9-.3h-12.5c-.5-.1-2.8 0-5 0-2.2.1-4.7.1-5.5 0-2.1-.1-11.7 0-16 .2-1.9.1-3.9.1-4.5.1-2.8-.2-25.1-.3-26-.1-.5.1-1.3.1-1.6.1-1-.2-11.7-.2-24.7-.2-6.2 0-11.6-.2-12.1-.4-.4-.3-1.3-.1-1.9.3-.7.4-3.3.5-5.7.1-2.5-.4-4.5-.4-4.5-.1 0 .3-2.7.6-6 .6s-6-.2-6-.5-3-.4-6.7-.3c-3.8.1-12.4.2-19.3.2-12.4 0-14.8 0-17.2.2-1.3.1-9 0-16.2-.1-2.2-.1-4.2-.2-4.5-.4-.3-.1-1.4-.1-2.3.1zM483.8 224c-4.7.3-8.8.7-9 1-.7.8-5.8 11.9-5.9 12.8 0 .4-.8 1.5-1.7 2.6-.9 1-1.6 2-1.5 2.2.3.4-5.4 12.1-56.4 116.4-8 16.2-14.4 29.6-14.4 29.7 0 .1-3.7 7.6-8.1 16.5-4.5 9-8.2 16.5-8.3 16.8-.1.5-19.9 41.1-24.2 49.7-2.2 4.3-2.4 5.4-1.4 6.7 2.3 2.8 2.8 2.5 11.6-7.8 14.5-17 23.1-27 34-39.6 4.9-5.7 9.3-10.9 9.8-11.5.4-.5 1.7-2.1 3-3.6 1.2-1.4 4.5-5.2 7.2-8.4 6.2-7.3 11.8-13.8 12.5-14.5.3-.3 4.3-5 9-10.5s8.7-10.2 9-10.5c.3-.3 5.7-6.6 11.9-14 6.3-7.4 11.9-14 12.5-14.5.6-.6 4.7-5.3 9.1-10.5 4.4-5.2 8.4-10 9-10.6.5-.6 3.3-3.7 6-6.9 6.7-7.9 11.9-13.9 12.5-14.5.5-.5 7.5-8.8 12.5-14.9 1.1-1.3 2.9-3.3 4.1-4.5 1.1-1.2 4.3-4.8 7-8.1s6-7.2 7.4-8.7c1.4-1.5 3-3.3 3.5-4 2-2.6 18.9-22.3 20-23.3.6-.6 2.8-3.3 5-6 2.2-2.8 4.7-5.5 5.5-6.2 1.2-1 .7-1.3-3-1.4-2.5-.1-4.9-.1-5.5.1-.5.1-3.3.1-6.2 0-2.9 0-6.1-.1-7-.1h-25.8c-.5-.1-2.8 0-5 0-2.2.1-4.7.1-5.5 0-1.6-.1-10 0-16 .1-1.9.1-3.6.3-3.8.5-.2.2-1.4.1-2.6-.3-1.1-.4-6-.5-10.8-.2z"/></svg>